<mxfile host="app.diagrams.net" modified="2025-10-08T23:22:50.618051Z" agent="python" version="22.0.0"><diagram id="175996577061806" name="N_Tier_Deployment"><mxGraphModel dx="1200" dy="800" grid="1" gridSize="10" guides="1" tooltips="1" connect="1" arrows="1" fold="1" page="1" pageScale="1" pageWidth="2200" pageHeight="1400" math="0" shadow="0"><root><mxCell id="0" /><mxCell id="1" parent="0" /><mxCell id="nt_frame" value="N-Tier Deployment" style="shape=swimlane;rounded=1;horizontal=0;align=center;verticalAlign=top;startSize=32;collapsible=0;" vertex="1" parent="1"><mxGeometry x="40" y="40" width="2000" height="1180" as="geometry" /></mxCell><mxCell id="T1" value="Presentation" style="swimlane;rounded=0;horizontal=0;startSize=28;" vertex="1" parent="nt_frame"><mxGeometry x="60" y="80" width="1960" height="200" as="geometry" /></mxCell><mxCell id="T2" value="Application/API" style="swimlane;rounded=0;horizontal=0;startSize=28;" vertex="1" parent="nt_frame"><mxGeometry x="60" y="290" width="1960" height="260" as="geometry" /></mxCell><mxCell id="T3" value="Integration/Async" style="swimlane;rounded=0;horizontal=0;startSize=28;" vertex="1" parent="nt_frame"><mxGeometry x="60" y="560" width="1960" height="260" as="geometry" /></mxCell><mxCell id="T4" value="Data/Observability" style="swimlane;rounded=0;horizontal=0;startSize=28;" vertex="1" parent="nt_frame"><mxGeometry x="60" y="830" width="1960" height="350" as="geometry" /></mxCell><mxCell id="t_client" value="React SPA" style="rounded=1;whiteSpace=wrap;html=1;" vertex="1" parent="T1"><mxGeometry x="120" y="140" width="400" height="100" as="geometry" /></mxCell><mxCell id="t_ingress" value="Ingress (Nginx)" style="rounded=1;whiteSpace=wrap;html=1;" vertex="1" parent="T1"><mxGeometry x="600" y="140" width="420" height="100" as="geometry" /></mxCell><mxCell id="t_api" value="API (Express)&#10;Auth, Notes, Quiz, Tutor, Forum" style="rounded=1;whiteSpace=wrap;html=1;" vertex="1" parent="T2"><mxGeometry x="120" y="360" width="600" height="160" as="geometry" /></mxCell><mxCell id="t_cache" value="Redis (cache/sessions/rate-limits)" style="rounded=1;whiteSpace=wrap;html=1;" vertex="1" parent="T2"><mxGeometry x="780" y="380" width="420" height="120" as="geometry" /></mxCell><mxCell id="t_worker" value="Workers (OCR/ASR/Summarise/Embed/Quiz)" style="rounded=1;whiteSpace=wrap;html=1;" vertex="1" parent="T3"><mxGeometry x="120" y="630" width="600" height="150" as="geometry" /></mxCell><mxCell id="t_queue" value="Redis Streams / Queue" style="rounded=1;whiteSpace=wrap;html=1;" vertex="1" parent="T3"><mxGeometry x="780" y="650" width="420" height="120" as="geometry" /></mxCell><mxCell id="t_db" value="Postgres + pgvector" style="shape=cylinder3;whiteSpace=wrap;html=1;" vertex="1" parent="T4"><mxGeometry x="120" y="900" width="420" height="170" as="geometry" /></mxCell><mxCell id="t_obj" value="Object Storage (MinIO/S3)" style="shape=cylinder3;whiteSpace=wrap;html=1;" vertex="1" parent="T4"><mxGeometry x="620" y="900" width="420" height="170" as="geometry" /></mxCell><mxCell id="t_obs" value="Observability (OTel→Prom/Grafana)&#10;Centralised Logs" style="rounded=1;whiteSpace=wrap;html=1;" vertex="1" parent="T4"><mxGeometry x="1080" y="900" width="420" height="170" as="geometry" /></mxCell><mxCell id="te1" value="" style="endArrow=classic;" edge="1" parent="1" source="t_client" target="t_ingress"><mxGeometry relative="1" as="geometry" /></mxCell><mxCell id="te2" value="" style="endArrow=classic;" edge="1" parent="1" source="t_ingress" target="t_api"><mxGeometry relative="1" as="geometry" /></mxCell><mxCell id="te3" value="" style="endArrow=classic;" edge="1" parent="1" source="t_api" target="t_cache"><mxGeometry relative="1" as="geometry" /></mxCell><mxCell id="te4" value="" style="endArrow=classic;" edge="1" parent="1" source="t_api" target="t_queue"><mxGeometry relative="1" as="geometry" /></mxCell><mxCell id="te5" value="" style="endArrow=classic;" edge="1" parent="1" source="t_worker" target="t_queue"><mxGeometry relative="1" as="geometry" /></mxCell><mxCell id="te6" value="" style="endArrow=classic;" edge="1" parent="1" source="t_worker" target="t_obj"><mxGeometry relative="1" as="geometry" /></mxCell><mxCell id="te7" value="" style="endArrow=classic;" edge="1" parent="1" source="t_worker" target="t_db"><mxGeometry relative="1" as="geometry" /></mxCell><mxCell id="te8" value="" style="endArrow=classic;" edge="1" parent="1" source="t_api" target="t_db"><mxGeometry relative="1" as="geometry" /></mxCell><mxCell id="te9" value="" style="endArrow=classic;" edge="1" parent="1" source="t_api" target="t_obj"><mxGeometry relative="1" as="geometry" /></mxCell></root></mxGraphModel></diagram></mxfile>